<svg width="81" height="32" viewBox="0 0 81 32" fill="none" xmlns="http://www.w3.org/2000/svg">
<g clip-path="url(#clip0_133_103)">
<path d="M11.066 15.8314H7.1765V22.5692C7.1765 23.2634 7.32963 23.7432 7.63589 24.0086C7.96257 24.2536 8.39134 24.3761 8.92219 24.3761C9.33054 24.3761 9.7491 24.3353 10.1779 24.2536C10.6066 24.172 10.9537 24.0597 11.2192 23.9167L11.8317 26.765C11.4846 26.9283 10.9639 27.0917 10.2697 27.255C9.57555 27.4183 8.84052 27.5 8.06466 27.5C6.28834 27.5 5.02246 27.1529 4.26702 26.4587C3.51157 25.7441 3.13385 24.6824 3.13385 23.2736V15.8314H0.867514V12.8913H3.13385V8.38928H7.1765V12.8913H11.066V15.8314ZM25.1634 27.5H21.0901V12.8913H24.2752L24.7652 14.7595C25.4186 14.0857 26.1332 13.5549 26.9091 13.167C27.6849 12.779 28.5629 12.5851 29.5429 12.5851C31.6255 12.5851 33.0445 13.3405 33.8 14.8514C34.4533 14.1368 35.1986 13.5855 36.0357 13.1976C36.8728 12.7892 37.7711 12.5851 38.7308 12.5851C40.2825 12.5851 41.4667 13.0036 42.2834 13.8407C43.1205 14.6779 43.5391 15.8927 43.5391 17.4852V27.5H39.4658V17.9446C39.4658 17.2504 39.2922 16.7094 38.9451 16.3215C38.6185 15.9131 38.1285 15.7089 37.4751 15.7089C36.9238 15.7089 36.3623 15.8416 35.7907 16.1071C35.2394 16.3725 34.7596 16.7502 34.3512 17.2402V27.5H30.2779V17.9446C30.2779 17.2504 30.1044 16.7094 29.7573 16.3215C29.4306 15.9131 28.9406 15.7089 28.2872 15.7089C27.736 15.7089 27.1745 15.8621 26.6028 16.1683C26.0515 16.4542 25.5717 16.8523 25.1634 17.3627V27.5ZM61.7162 20.2416C61.7162 21.4054 61.5426 22.4569 61.1955 23.3961C60.8484 24.3353 60.3686 25.1418 59.7561 25.8156C59.1436 26.4689 58.4188 26.9691 57.5816 27.3162C56.7445 27.6633 55.8359 27.8369 54.8559 27.8369C53.8963 27.8369 53.0796 27.694 52.4058 27.4081C51.732 27.1019 51.1399 26.6833 50.6295 26.1524H50.507L50.2314 27.5H47.2913V5.63293H51.3339V14.0857C51.8443 13.6161 52.4364 13.2486 53.1102 12.9832C53.8044 12.7178 54.5394 12.5851 55.3153 12.5851C57.3162 12.5851 58.8781 13.2588 60.0011 14.6064C61.1445 15.9539 61.7162 17.8323 61.7162 20.2416ZM57.5204 20.3335C57.5204 18.8226 57.2243 17.6792 56.6322 16.9034C56.0401 16.1071 55.203 15.7089 54.1209 15.7089C53.5492 15.7089 53.0183 15.8519 52.5283 16.1377C52.0383 16.4031 51.6504 16.7094 51.3645 17.0565V23.7636C51.63 24.0699 51.9668 24.3251 52.3752 24.5293C52.804 24.7334 53.2531 24.8355 53.7227 24.8355C54.2128 24.8355 54.6824 24.7436 55.1315 24.5599C55.6011 24.3761 56.0095 24.1005 56.3566 23.733C56.7241 23.3655 57.0099 22.9061 57.2141 22.3548C57.4183 21.7831 57.5204 21.1093 57.5204 20.3335ZM74.0695 12.8913H78.1428V27.5H75.1108L74.682 25.8462H74.5595C74.3349 26.0708 74.0695 26.3056 73.7632 26.5506C73.4774 26.7752 73.1303 26.9896 72.722 27.1937C72.334 27.3775 71.8848 27.5306 71.3744 27.6531C70.8844 27.7756 70.3331 27.8369 69.7206 27.8369C68.1485 27.8369 66.903 27.3979 65.9842 26.52C65.0858 25.642 64.6367 24.3455 64.6367 22.6304V12.8913H68.7099V22.2936C68.7099 23.1715 68.9141 23.8044 69.3225 24.1924C69.7512 24.5803 70.2923 24.7743 70.9456 24.7743C71.6807 24.7743 72.3034 24.6211 72.8138 24.3149C73.3447 24.0086 73.7632 23.6513 74.0695 23.243V12.8913Z" fill="#008080"/>
<rect x="13.6074" y="-1.22754" width="4.29333" height="28.1458" rx="0.877627" fill="#FFBA48"/>
<rect x="14.2012" y="-0.619629" width="3.10669" height="6.59243" rx="0.877627" fill="#008080"/>
<path d="M20.2801 4.50264C20.2193 4.53135 20.1507 4.53799 20.0832 4.51655L18.9537 4.16032C18.777 4.10486 18.67 3.8808 18.7149 3.66027C18.7595 3.44022 18.939 3.30665 19.1155 3.36221L20.2451 3.71844C20.4218 3.77391 20.5288 3.99796 20.4838 4.21849C20.456 4.35356 20.3775 4.45672 20.2801 4.50264L20.2801 4.50264Z" fill="#FFBA48"/>
<path d="M13.1 4.08288L10.7866 5.17428C10.6161 5.25471 10.4237 5.13926 10.3593 4.92645C10.2949 4.71365 10.3782 4.46811 10.5485 4.38779L12.8619 3.29638C13.0323 3.21595 13.2247 3.33141 13.2892 3.54421C13.3536 3.75702 13.2703 4.00255 13.1 4.08288Z" fill="#FFBA48"/>
<path d="M12.6754 0.354225C12.6268 0.377131 12.573 0.385918 12.5182 0.377311L10.0131 -0.0135335C9.8326 -0.041535 9.70425 -0.24737 9.72681 -0.473011C9.74908 -0.698825 9.91415 -0.858497 10.0949 -0.830332L12.6 -0.439488C12.7805 -0.411486 12.9088 -0.20565 12.8863 0.0199913C12.8702 0.176749 12.7861 0.301985 12.6754 0.354224L12.6754 0.354225Z" fill="#FFBA48"/>
<path d="M18.7453 0.493192C18.5937 0.564708 18.4192 0.48752 18.3396 0.305064C18.2525 0.105442 18.3114 -0.14454 18.471 -0.253382L20.9191 -1.9201C21.0792 -2.0298 21.2793 -1.95526 21.3665 -1.75602C21.4535 -1.5564 21.3946 -1.30642 21.235 -1.19757L18.787 0.469141C18.7733 0.478724 18.7596 0.486455 18.7453 0.493192L18.7453 0.493192Z" fill="#FFBA48"/>
</g>
<defs>
<clipPath id="clip0_133_103">
<rect x="0.5" width="80" height="32" rx="4.86957" fill="white"/>
</clipPath>
</defs>
</svg>
